# xmcd
#
# Track frame offsets: 
#        150
#        13550
#        29112
#        45487
#        62675
#        78862
#        96687
#        114787
#        134012
#        148350
#        154037
#        161062
#        169462
#        180675
#        190737
#        202412
#        211687
#        217712
#        228662
#        239150
#        251137
#        258137
#        265912
#        276562
#        288412
#        306437
#
# Disc length: 4176 seconds
#
# Revision: 0
# Processed by: cddbd v1.5.2PL0 Copyright (c) Steve Scherf et al.
# Submitted via: ExactAudioCopyFreeDBPlugin 1.0
#
DISCID=98104e1a
DTITLE=多位藝術家 - 兒歌天地 1
DYEAR=1900
DGENRE=Pop
TTITLE0=王馨平 湯寶如 周慧敏 - 美少女戰士
TTITLE1=唐韋琪 - 夢中天使 (卡通片 [長腿叔叔] 主題曲)
TTITLE2=張崇基 張崇德 - 龍珠94
TTITLE3=黎瑞恩 - 正義 (卡通片 [無敵3x1] 主題曲)
TTITLE4=江欣燕 - 情誼心中記 (卡通片 [龍貓] 主題曲)
TTITLE5=阿慈 - 傳說少女(Hey! Lig) (卡通片 [餓狼傳說] 主題曲)
TTITLE6=譚耀文 - 聖鬥士星矢
TTITLE7=劉德華 - 城市獵人
TTITLE8=李克勤 小太陽兒童合唱團 - 閃電傳真機
TTITLE9=胡渭康 - 怪物王子
TTITLE10=小太陽兒童合唱團 - 機靈小和尚
TTITLE11=蔣慶龍 - 機動戰士
TTITLE12=蔣慶龍 - 雷鳥拯救隊
TTITLE13=小太陽兒童合唱團 - 小雙俠
TTITLE14=蔣慶龍 - 高狄安
TTITLE15=胡渭康 - 電子神童
TTITLE16=胡渭康 - 黃金戰士
TTITLE17=戴蘊慧 - 我愛小忌廉
TTITLE18=張衛健 - 足球小將
TTITLE19=小太陽兒童合唱團 - 新醒目仔
TTITLE20=小太陽兒童合唱團 - 肥貓加菲
TTITLE21=小太陽兒童合唱團 - 讓我閃耀
TTITLE22=張國榮 鄭伊健 - 活力活力
TTITLE23=小太陽兒童合唱團 - 同心合力
TTITLE24=小太陽兒童合唱團 - 童軍樂
TTITLE25=小太陽兒童合唱團 - 生日快樂
EXTD=
EXTT0=
EXTT1=
EXTT2=
EXTT3=
EXTT4=
EXTT5=
EXTT6=
EXTT7=
EXTT8=
EXTT9=
EXTT10=
EXTT11=
EXTT12=
EXTT13=
EXTT14=
EXTT15=
EXTT16=
EXTT17=
EXTT18=
EXTT19=
EXTT20=
EXTT21=
EXTT22=
EXTT23=
EXTT24=
EXTT25=
PLAYORDER=
